{"title":"Bondens.Tid.PÃƒÂ¥.Jorden.2003.DVDRip.XviD-nes","uid":5104257,"size":840845312,"categoryP":"video","categoryS":"movies","magnet":"?xt=urn:btih:665e93ea61616b07647ae2f70f1528d016e20027&amp;dn=Bondens.Tid.P%C3%83%C2%A5.Jorden.2003.DVDRip.XviD-nes&amp;tr=udp%3A%2F%2Ftracker.openbittorrent.com%3A80&amp;tr=udp%3A%2F%2Fopen.demonii.com%3A1337&amp;tr=udp%3A%2F%2Ftracker.coppersurfer.tk%3A6969&amp;tr=udp%3A%2F%2Fexodus.desync.com%3A6969","seeders":0,"leechers":1,"uploader":"Kramboa","files":1,"time":1254243069,"description":"StyrbjÃƒÂ¶rn Ejneby tog ÃƒÂ¶ver familjegÃƒÂ¥rden 1971. Sedan dess har han och hustrun Solveig skÃƒÂ¶tt jordbruket i Hycklinge med hÃƒÂ¤st och vagn, utan gifter och konstgÃƒÂ¶dsel. StyrbjÃƒÂ¶rns brinnande engagemang fÃƒÂ¶r naturen och kulturlandskapet har gjort honom bÃƒÂ¥de hatad och ÃƒÂ¤lskad. Men frÃƒÂ¥n att ha ansetts komplett galen, har samtiden sakta accepterat honom som en unik miljÃƒÂ¶hjÃƒÂ¤lte och den siste av sin sort!\n\nwww.bondenstid.com\n\n\n\nGeneral\nComplete name                    : E:Bondens.Tid.PÃƒÂ¥.Jorden.2003.DVDRip.XviD-nes.avi\nFormat                           : AVI\nFormat/Info                      : Audio Video Interleave\nFile size                        : 802 MiB\nDuration                         : 58mn 23s\nOverall bit rate                 : 1 920 Kbps\nWriting application              : VirtualDubMod 1.5.10.2 (build 2540/release)\nWriting library                  : VirtualDubMod build 2540/release\n\nVideo\nID                               : 0\nFormat                           : MPEG-4 Visual\nFormat profile                   : AdvancedSimple@L5\nFormat settings, BVOP            : Yes\nFormat settings, QPel            : No\nFormat settings, GMC             : No warppoints\nFormat settings, Matrix          : Default (H.263)\nMuxing mode                      : Packed bitstream\nCodec ID                         : XVID\nCodec ID/Hint                    : XviD\nDuration                         : 58mn 23s\nBit rate                         : 1 719 Kbps\nWidth                            : 672 pixels\nHeight                           : 496 pixels\nDisplay aspect ratio             : 4:3\nFrame rate                       : 25.000 fps\nResolution                       : 24 bits\nColorimetry                      : 4:2:0\nScan type                        : Progressive\nBits/(Pixel*Frame)               : 0.206\nStream size                      : 718 MiB (89%)\nWriting library                  : XviD 1.2.1 (UTC 2008-12-04)\n\nAudio\nID                               : 1\nFormat                           : AC-3\nFormat/Info                      : Audio Coding 3\nCodec ID                         : 2000\nDuration                         : 58mn 22s\nBit rate mode                    : Constant\nBit rate                         : 192 Kbps\nChannel(s)                       : 2 channels\nChannel positions                : L R\nSampling rate                    : 48.0 KHz\nStream size                      : 80.2 MiB (10%)\nAlignment                        : Split accross interleaves\nInterleave, duration             : 40 ms (1.00 video frame)\nInterleave, preload duration     : 500 ms\n\n","torrent":{"xt":"urn:btih:665e93ea61616b07647ae2f70f1528d016e20027","amp;dn":"Bondens.Tid.P%C3%83%C2%A5.Jorden.2003.DVDRip.XviD-nes","amp;tr":["udp%3A%2F%2Ftracker.openbittorrent.com%3A80","udp%3A%2F%2Fopen.demonii.com%3A1337","udp%3A%2F%2Ftracker.coppersurfer.tk%3A6969","udp%3A%2F%2Fexodus.desync.com%3A6969"],"infoHash":"665e93ea61616b07647ae2f70f1528d016e20027","infoHashBuffer":{"type":"Buffer","data":[102,94,147,234,97,97,107,7,100,122,226,247,15,21,40,208,22,226,0,39]},"announce":[],"urlList":[]}}